{
  "accessors": [
    {
      "bufferView": 2,
      "componentType": 5126,
      "count": 22,
      "max": [
        0.48510199785232544,
        6.49171257019043,
        5.856115341186523
      ],
      "min": [
        -0.4851020574569702,
        5.9947614669799805,
        5.661162376403809
      ],
      "type": "VEC3"
    },
    {
      "bufferView": 2,
      "byteOffset": 264,
      "componentType": 5126,
      "count": 22,
      "max": [
        0.9746484756469727,
        0.9525534510612488,
        -0.2237420380115509
      ],
      "min": [
        -0.9746483564376831,
        2.483718901657994e-07,
        -0.3043729364871979
      ],
      "type": "VEC3"
    },
    {
      "bufferView": 1,
      "componentType": 5126,
      "count": 22,
      "max": [
        0.7352371215820313,
        0.3999769985675812
      ],
      "min": [
        0.6462713479995728,
        0.3622371256351471
      ],
      "type": "VEC2"
    },
    {
      "bufferView": 0,
      "componentType": 5125,
      "count": 36,
      "type": "SCALAR"
    },
    {
      "bufferView": 2,
      "byteOffset": 528,
      "componentType": 5126,
      "count": 52701,
      "max": [
        5.1764116287231445,
        27.635175704956055,
        11.737139701843262
      ],
      "min": [
        -5.176413059234619,
        -27.87535858154297,
        -5.765089988708496
      ],
      "type": "VEC3"
    },
    {
      "bufferView": 2,
      "byteOffset": 632940,
      "componentType": 5126,
      "count": 52701,
      "max": [
        1.0,
        1.0,
        1.0
      ],
      "min": [
        -1.0,
        -1.0,
        -1.0
      ],
      "type": "VEC3"
    },
    {
      "bufferView": 3,
      "componentType": 5126,
      "count": 52701,
      "max": [
        1.0,
        1.0,
        1.0,
        1.0
      ],
      "min": [
        -1.0,
        -1.0,
        -1.0,
        -1.0
      ],
      "type": "VEC4"
    },
    {
      "bufferView": 1,
      "byteOffset": 176,
      "componentType": 5126,
      "count": 52701,
      "max": [
        0.9948602318763733,
        0.9989905953407288
      ],
      "min": [
        0.002008359879255295,
        0.002247620141133666
      ],
      "type": "VEC2"
    },
    {
      "bufferView": 1,
      "byteOffset": 421784,
      "componentType": 5126,
      "count": 52701,
      "max": [
        0.9948602318763733,
        0.9989905953407288
      ],
      "min": [
        0.002008359879255295,
        0.002247620141133666
      ],
      "type": "VEC2"
    },
    {
      "bufferView": 0,
      "byteOffset": 144,
      "componentType": 5125,
      "count": 266682,
      "type": "SCALAR"
    }
  ],
  "asset": {
    "extras": {
      "author": "Artech (https://sketchfab.com/ArtechStudio)",
      "license": "CC-BY-4.0 (http://creativecommons.org/licenses/by/4.0/)",
      "source": "https://sketchfab.com/3d-models/koreanavy-jang-bogo-classtype209-submarine-abd6a2cd5fe14f6baa16e64c2d20f317",
      "title": "KoreaNavy -Jang bogo- Class(Type209) Submarine"
    },
    "generator": "Sketchfab-12.68.0",
    "version": "2.0"
  },
  "bufferViews": [
    {
      "buffer": 0,
      "byteLength": 1066872,
      "name": "floatBufferViews",
      "target": 34963
    },
    {
      "buffer": 0,
      "byteLength": 843392,
      "byteOffset": 1066872,
      "byteStride": 8,
      "name": "floatBufferViews",
      "target": 34962
    },
    {
      "buffer": 0,
      "byteLength": 1265352,
      "byteOffset": 1910264,
      "byteStride": 12,
      "name": "floatBufferViews",
      "target": 34962
    },
    {
      "buffer": 0,
      "byteLength": 843216,
      "byteOffset": 3175616,
      "byteStride": 16,
      "name": "floatBufferViews",
      "target": 34962
    }
  ],
  "buffers": [
    {
      "byteLength": 4018832,
      "uri": "scene.bin"
    }
  ],
  "images": [
    {
      "uri": "textures/Window_baseColor.png"
    },
    {
      "uri": "textures/Window_metallicRoughness.png"
    },
    {
      "uri": "textures/Hull_baseColor.png"
    },
    {
      "uri": "textures/Hull_normal.png"
    }
  ],
  "materials": [
    {
      "alphaMode": "BLEND",
      "doubleSided": true,
      "name": "Window",
      "pbrMetallicRoughness": {
        "baseColorFactor": [
          1.0,
          1.0,
          1.0,
          0.7132068166780683
        ],
        "baseColorTexture": {
          "index": 0
        },
        "metallicRoughnessTexture": {
          "index": 1
        },
        "roughnessFactor": 0.5551271201910856
      }
    },
    {
      "doubleSided": true,
      "name": "Hull",
      "normalTexture": {
        "index": 3
      },
      "pbrMetallicRoughness": {
        "baseColorTexture": {
          "index": 2
        },
        "metallicRoughnessTexture": {
          "index": 1
        }
      }
    }
  ],
  "meshes": [
    {
      "name": "Type209_Window_0",
      "primitives": [
        {
          "attributes": {
            "NORMAL": 1,
            "POSITION": 0,
            "TEXCOORD_0": 2
          },
          "indices": 3,
          "material": 0,
          "mode": 4
        }
      ]
    },
    {
      "name": "Type209_Hull_0",
      "primitives": [
        {
          "attributes": {
            "NORMAL": 5,
            "POSITION": 4,
            "TANGENT": 6,
            "TEXCOORD_0": 7,
            "TEXCOORD_1": 8
          },
          "indices": 9,
          "material": 1,
          "mode": 4
        }
      ]
    }
  ],
  "nodes": [
    {
      "children": [
        1
      ],
      "matrix": [
        1.0,
        0.0,
        0.0,
        0.0,
        0.0,
        2.220446049250313e-16,
        -1.0,
        0.0,
        0.0,
        1.0,
        2.220446049250313e-16,
        0.0,
        0.0,
        0.0,
        0.0,
        1.0
      ],
      "name": "Sketchfab_model"
    },
    {
      "children": [
        2
      ],
      "matrix": [
        1.0,
        0.0,
        0.0,
        0.0,
        0.0,
        0.0,
        1.0,
        0.0,
        0.0,
        -1.0,
        0.0,
        0.0,
        0.0,
        0.0,
        0.0,
        1.0
      ],
      "name": "afd1e7d41719480ca684cbb1ae76f740.fbx"
    },
    {
      "children": [
        3
      ],
      "name": "RootNode"
    },
    {
      "children": [
        4,
        5
      ],
      "matrix": [
        100.0,
        0.0,
        0.0,
        0.0,
        0.0,
        -1.629206793918314e-05,
        -99.99999999999868,
        0.0,
        0.0,
        99.99999999999868,
        -1.629206793918314e-05,
        0.0,
        0.0,
        0.0,
        0.0,
        1.0
      ],
      "name": "Type209"
    },
    {
      "mesh": 0,
      "name": "Type209_Window_0"
    },
    {
      "mesh": 1,
      "name": "Type209_Hull_0"
    }
  ],
  "samplers": [
    {
      "magFilter": 9729,
      "minFilter": 9987,
      "wrapS": 10497,
      "wrapT": 10497
    }
  ],
  "scene": 0,
  "scenes": [
    {
      "name": "Sketchfab_Scene",
      "nodes": [
        0
      ]
    }
  ],
  "textures": [
    {
      "sampler": 0,
      "source": 0
    },
    {
      "sampler": 0,
      "source": 1
    },
    {
      "sampler": 0,
      "source": 2
    },
    {
      "sampler": 0,
      "source": 3
    }
  ]
}
